{"title":"Big.Brother.Canada.S02E02.WEB-DL.x264-DARKCROWN","uid":9730521,"size":266762656,"categoryP":"video","categoryS":"tv_shows","magnet":"?xt=urn:btih:00e00b74c9f4d51b4c99442034ff1cbe5f5d1942&amp;dn=Big.Brother.Canada.S02E02.WEB-DL.x264-DARKCROWN&amp;tr=udp%3A%2F%2Ftracker.openbittorrent.com%3A80&amp;tr=udp%3A%2F%2Fopen.demonii.com%3A1337&amp;tr=udp%3A%2F%2Ftracker.coppersurfer.tk%3A6969&amp;tr=udp%3A%2F%2Fexodus.desync.com%3A6969","seeders":1,"leechers":1,"uploader":"theacidwiz","files":1,"time":1394374088,"description":"Watch as nominees are named. Power of Veto is played and the first evictee is sent packing. Then witness history as the three secret houseguests kick of the thrilling TWISTOS TWIST.\n\nDownloaded from slice.ca as is - no editing.\n\nGeneral\nComplete name : Big.Brother.Canada.S02E02.WEB-DL.x264-DARKCROWN.mp4\nFormat : MPEG-4\nFormat profile : Base Media / Version 2\nCodec ID : mp42\nFile size : 254 MiB\nDuration : 43mn 13s\nOverall bit rate mode : Variable\nOverall bit rate : 823 Kbps\nEncoded date : UTC 2014-03-07 04:54:08\nTagged date : UTC 2014-03-07 04:54:08\n\nVideo\nID : 1\nFormat : AVC\nFormat/Info : Advanced Video Codec\nFormat profile : &lt;a class=&quot;__cf_email__&quot; href=&quot;/cdn-cgi/l/email-protection&quot; data-cfemail=&quot;591438303719156a7768&quot;&gt;[email&amp;#160;protected]&lt;/a&gt;&lt;script cf-hash='f9e31' type=&quot;text/javascript&quot;&gt;\n/* &lt;![CDATA[ */!function(){try{var t=&quot;currentScript&quot;in document?document.currentScript:function(){for(var t=document.getElementsByTagName(&quot;script&quot;),e=t.length;e--;)if(t[e].getAttribute(&quot;cf-hash&quot;))return t[e]}();if(t&amp;&amp;t.previousSibling){var e,r,n,i,c=t.previousSibling,a=c.getAttribute(&quot;data-cfemail&quot;);if(a){for(e=&quot;&quot;,r=parseInt(a.substr(0,2),16),n=2;a.length-n;n+=2)i=parseInt(a.substr(n,2),16)^r,e+=String.fromCharCode(i);e=document.createTextNode(e),c.parentNode.replaceChild(e,c)}}}catch(u){}}();/* ]]&gt; */&lt;/script&gt;\nFormat settings, CABAC : Yes\nFormat settings, ReFrames : 4 frames\nCodec ID : avc1\nCodec ID/Info : Advanced Video Coding\nDuration : 43mn 13s\nBit rate mode : Variable\nBit rate : 773 Kbps\nMaximum bit rate : 840 Kbps\nWidth : 960 pixels\nHeight : 544 pixels\nDisplay aspect ratio : 16:9\nFrame rate mode : Constant\nFrame rate : 29.970 fps\nColor space : YUV\nChroma subsampling : 4:2:0\nBit depth : 8 bits\nScan type : Progressive\nBits/(Pixel*Frame) : 0.049\nStream size : 239 MiB (94%)\nLanguage : English\nEncoded date : UTC 2014-03-07 04:54:08\nTagged date : UTC 2014-03-07 04:54:08\n\nAudio\nID : 2\nFormat : AAC\nFormat/Info : Advanced Audio Codec\nFormat profile : LC\nCodec ID : 40\nDuration : 43mn 13s\nBit rate mode : Variable\nBit rate : 45.6 Kbps\nMaximum bit rate : 243 Kbps\nChannel(s) : 2 channels\nChannel positions : Front: L R\nSampling rate : 44.1 KHz\nCompression mode : Lossy\nStream size : 14.1 MiB (6%)\nLanguage : English\nEncoded date : UTC 2014-03-07 04:54:08\nTagged date : UTC 2014-03-07 04:54:08\nmdhd_Duration : 2593251 ","torrent":{"xt":"urn:btih:00e00b74c9f4d51b4c99442034ff1cbe5f5d1942","amp;dn":"Big.Brother.Canada.S02E02.WEB-DL.x264-DARKCROWN","amp;tr":["udp%3A%2F%2Ftracker.openbittorrent.com%3A80","udp%3A%2F%2Fopen.demonii.com%3A1337","udp%3A%2F%2Ftracker.coppersurfer.tk%3A6969","udp%3A%2F%2Fexodus.desync.com%3A6969"],"infoHash":"00e00b74c9f4d51b4c99442034ff1cbe5f5d1942","infoHashBuffer":{"type":"Buffer","data":[0,224,11,116,201,244,213,27,76,153,68,32,52,255,28,190,95,93,25,66]},"announce":[],"urlList":[]}}